<?xml version="1.0" standalone="no"?>
<!DOCTYPE svg PUBLIC "-//W3C//DTD SVG 20010904//EN"
 "http://www.w3.org/TR/2001/REC-SVG-20010904/DTD/svg10.dtd">
<svg version="1.0" xmlns="http://www.w3.org/2000/svg"
 width="663.000000pt" height="376.000000pt" viewBox="0 0 663.000000 376.000000"
 preserveAspectRatio="xMidYMid meet">

<g transform="translate(0.000000,376.000000) scale(0.100000,-0.100000)"
fill="#000000" stroke="none">
<path d="M3649 2028 c-20 -27 -103 -132 -116 -148 -2 -2 -8 2 -13 10 -5 8 -35
48 -67 89 l-58 74 -5 -44 c-10 -88 -5 -262 7 -266 9 -3 13 29 15 123 l3 127
55 -71 c30 -39 58 -71 62 -72 3 0 30 32 58 70 29 39 54 69 56 67 3 -2 5 -57 7
-122 1 -84 6 -120 15 -123 9 -3 12 33 12 157 0 89 -2 161 -4 161 -1 0 -14 -14
-27 -32z"/>
<path d="M4170 1995 c0 -68 -3 -74 -30 -50 -32 29 -89 23 -129 -14 -27 -25
-31 -36 -31 -78 0 -26 6 -55 13 -63 37 -48 104 -64 143 -35 25 19 34 19 34 0
0 -8 5 -15 10 -15 6 0 10 60 10 160 0 100 -4 160 -10 160 -6 0 -10 -28 -10
-65z m-20 -77 c30 -33 27 -98 -6 -132 -77 -77 -191 41 -123 128 27 35 98 37
129 4z"/>
<path d="M2580 1999 c0 -22 -5 -32 -20 -36 -11 -3 -20 -9 -20 -14 0 -5 9 -9
20 -9 19 0 20 -7 20 -90 0 -78 2 -91 19 -100 25 -13 71 -13 71 0 0 6 -10 10
-23 10 -38 0 -47 19 -47 102 l0 78 35 0 c19 0 35 5 35 10 0 6 -16 10 -35 10
-33 0 -35 2 -35 35 0 19 -4 35 -10 35 -5 0 -10 -14 -10 -31z"/>
<path d="M2775 1953 c-20 -11 -30 -12 -33 -4 -2 6 -8 11 -13 11 -5 0 -9 -49
-9 -110 0 -67 4 -110 10 -110 6 0 10 30 10 71 0 96 18 129 73 129 17 0 27 5
27 15 0 19 -27 19 -65 -2z"/>
<path d="M3161 1953 c-68 -34 -79 -133 -21 -185 33 -31 74 -36 129 -17 35 12
44 36 9 24 -13 -4 -40 -9 -60 -12 -32 -4 -42 0 -69 26 -46 47 -36 56 70 59
l92 3 -6 32 c-9 41 -22 57 -62 74 -40 16 -41 16 -82 -4z m103 -32 c10 -11 16
-28 14 -38 -3 -15 -14 -18 -65 -20 -35 -1 -69 4 -78 11 -15 11 -14 14 5 39 17
22 30 27 64 27 30 0 48 -6 60 -19z"/>
<path d="M3794 1956 c-43 -19 -64 -53 -64 -104 0 -37 6 -50 35 -79 33 -33 39
-35 86 -31 30 3 57 12 67 23 16 17 16 17 -8 10 -71 -21 -98 -18 -131 14 -46
46 -36 56 64 59 86 3 87 3 87 28 0 38 -18 64 -55 80 -41 17 -42 17 -81 0z
m103 -42 c27 -42 12 -54 -66 -54 -40 0 -73 5 -77 11 -3 6 2 23 13 37 34 45
102 48 130 6z"/>
<path d="M2880 1870 c0 -77 3 -93 20 -110 24 -24 67 -26 98 -4 20 14 23 14 28
0 15 -40 24 -7 24 94 0 127 -16 149 -22 29 -3 -70 -6 -83 -27 -100 -29 -24
-63 -24 -84 -1 -13 14 -17 38 -17 100 0 48 -4 82 -10 82 -6 0 -10 -37 -10 -90z"/>
</g>
</svg>
